<?xml version="1.0" encoding="iso-8859-1"?>
<!-- Generator: Adobe Illustrator 19.0.0, SVG Export Plug-In . SVG Version: 6.00 Build 0)  -->
<svg version="1.1" id="Capa_1" xmlns="http://www.w3.org/2000/svg" xmlns:xlink="http://www.w3.org/1999/xlink" x="0px" y="0px"
	 viewBox="0 0 512 512" style="enable-background:new 0 0 512 512;" xml:space="preserve">
<g>
	<g>
		<path d="M437.333,0H96C78.357,0,64,14.357,64,32v53.333H53.333c-5.888,0-10.667,4.779-10.667,10.667s4.779,10.667,10.667,10.667
			h85.333c5.888,0,10.667-4.779,10.667-10.667s-4.779-10.667-10.667-10.667h-30.037C113.045,72.939,124.779,64,138.667,64
			c17.643,0,32,14.357,32,32s-14.357,32-32,32H64v64H53.333c-5.888,0-10.667,4.779-10.667,10.667s4.779,10.667,10.667,10.667h85.333
			c5.888,0,10.667-4.779,10.667-10.667S144.555,192,138.667,192h-30.037c4.416-12.395,16.149-21.333,30.037-21.333
			c17.643,0,32,14.357,32,32c0,17.643-14.357,32-32,32H64v64H53.333c-5.888,0-10.667,4.779-10.667,10.667S47.445,320,53.333,320
			h85.333c5.888,0,10.667-4.779,10.667-10.667s-4.779-10.667-10.667-10.667h-30.037c4.416-12.395,16.149-21.333,30.037-21.333
			c17.643,0,32,14.357,32,32c0,17.643-14.357,32-32,32H64v64H53.333c-5.888,0-10.667,4.779-10.667,10.667
			c0,5.888,4.779,10.667,10.667,10.667h85.333c5.888,0,10.667-4.779,10.667-10.667c0-5.888-4.779-10.667-10.667-10.667h-30.037
			C113.045,392.939,124.779,384,138.667,384c17.643,0,32,14.357,32,32c0,17.643-14.357,32-32,32H64v32c0,17.643,14.357,32,32,32
			h341.333c17.643,0,32-14.357,32-32V32C469.333,14.357,454.976,0,437.333,0z"/>
	</g>
</g>
<g>
</g>
<g>
</g>
<g>
</g>
<g>
</g>
<g>
</g>
<g>
</g>
<g>
</g>
<g>
</g>
<g>
</g>
<g>
</g>
<g>
</g>
<g>
</g>
<g>
</g>
<g>
</g>
<g>
</g>
</svg>
